<?xml version="1.0" encoding="utf-8"?>
<!-- Svg Vector Icons : http://www.onlinewebfonts.com/icon -->
<!DOCTYPE svg PUBLIC "-//W3C//DTD SVG 1.1//EN" "http://www.w3.org/Graphics/SVG/1.1/DTD/svg11.dtd">
<svg version="1.1" xmlns="http://www.w3.org/2000/svg" xmlns:xlink="http://www.w3.org/1999/xlink" x="0px" y="0px" viewBox="0 0 256 256" enable-background="new 0 0 256 256" xml:space="preserve">
<metadata> Svg Vector Icons : http://www.onlinewebfonts.com/icon </metadata>
<g><g><path fill="#000000" d="M127.8,246C62.9,246,10,193.1,10,127.8C10,62.9,62.9,10,127.8,10C193.1,10,246,62.9,246,127.8C246,193.1,193.1,246,127.8,246 M94.9,103.7H72v73.7h22.9V103.7z M97,81.6c0-7.1-5.4-12.9-13.7-12.9c-8.3,0-14.2,5.4-14.2,12.9c0,7.1,5.4,12.9,13.7,12.9l0,0C91.6,94.5,97,89.1,97,81.6z M186.9,136.5c0-22.9-12.9-33.3-29.1-33.3c-13.3,0-21.2,7.1-22.9,12.1v-11.7h-25.8c0.4,6.2,0,73.7,0,73.7h25.8v-39.9c0-2.1,0-4.6,0.4-5.8c1.7-4.6,5.4-9.2,12.5-9.2c9.2,0,12.9,6.7,12.9,16.6v38.3h26.2L186.9,136.5L186.9,136.5z"/></g></g>
</svg>